<?xml version="1.0" encoding="utf-8"?>
<!-- Generator: Adobe Illustrator 26.0.1, SVG Export Plug-In . SVG Version: 6.00 Build 0)  -->
<svg version="1.1" id="Layer_1" xmlns="http://www.w3.org/2000/svg" xmlns:xlink="http://www.w3.org/1999/xlink" x="0px" y="0px"
	 viewBox="0 0 64.6 64.6" style="enable-background:new 0 0 64.6 64.6;" xml:space="preserve">
<style type="text/css">
	.st0{fill:#F47521;}
	.st1{fill:#FFFFFF;stroke:#FFFFFF;stroke-width:0.75;stroke-linecap:round;stroke-linejoin:round;}
</style>
<g>
	<path class="st0" d="M9.9,42.5c-6,5.1-8.1,20.2-8.1,20.2s15.1-2,20.2-8.1c2.9-3.4,2.8-8.5-0.4-11.7C18.4,39.8,13.4,39.6,9.9,42.5z"
		/>
	<path class="st1" d="M33,40.5l-8.9-8.9c1.6-4.1,3.6-8,5.9-11.7c7-11.2,19.4-18,32.7-18c0,8.1-2.3,22.3-17.8,32.7
		C41.1,36.9,37.2,38.9,33,40.5z"/>
	<path class="st1" d="M24.1,31.6H9.3c0,0,1.6-9,5.9-11.9c4.8-3.2,14.8,0,14.8,0"/>
	<path class="st1" d="M33,40.5v14.8c0,0,9-1.6,11.9-5.9c3.2-4.8,0-14.8,0-14.8"/>
</g>
</svg>
