<svg xmlns="http://www.w3.org/2000/svg" viewBox="0 0 66.21 66.21"><defs><style>.cls-1{fill:#f47521;}.cls-2{fill:none;stroke:#000;stroke-linecap:round;stroke-linejoin:round;stroke-width:4px;}</style></defs><g id="Layer_2" data-name="Layer 2"><g id="Layer_1-2" data-name="Layer 1"><path class="cls-1" d="M8.51,44.93C2.13,50.29,0,66.21,0,66.21s15.92-2.13,21.28-8.52a9.21,9.21,0,0,0-.38-12.38A9.28,9.28,0,0,0,8.51,44.93Z"/><path class="cls-2" d="M32.87,42.74l-9.4-9.4A68.48,68.48,0,0,1,29.73,21,40.38,40.38,0,0,1,64.21,2c0,8.53-2.45,23.51-18.81,34.47A68.88,68.88,0,0,1,32.87,42.74Z"/><path class="cls-2" d="M23.47,33.34H7.8s1.72-9.5,6.26-12.54c5.08-3.38,15.67,0,15.67,0"/><path class="cls-2" d="M32.87,42.74V58.41s9.49-1.72,12.53-6.27c3.39-5.07,0-15.67,0-15.67"/></g></g></svg>