<svg xmlns="http://www.w3.org/2000/svg" viewBox="0 0 64.58 64.58"><defs><style>.cls-1{fill:#f47521;}.cls-2{fill:#fff;stroke:#fff;stroke-linecap:round;stroke-linejoin:round;stroke-width:0.75px;}</style></defs><g id="Layer_2" data-name="Layer 2"><g id="Layer_1-2" data-name="Layer 1"><path class="cls-1" d="M8.51,43.3C2.13,48.66,0,64.58,0,64.58s15.92-2.13,21.28-8.51a9.22,9.22,0,0,0-.38-12.39A9.29,9.29,0,0,0,8.51,43.3Z"/><path class="cls-2" d="M32.87,41.12l-9.4-9.4a68.16,68.16,0,0,1,6.26-12.38A40.36,40.36,0,0,1,64.21.38c0,8.52-2.45,23.5-18.81,34.47A70.19,70.19,0,0,1,32.87,41.12Z"/><path class="cls-2" d="M23.47,31.72H7.8s1.72-9.5,6.26-12.54c5.08-3.39,15.67,0,15.67,0"/><path class="cls-2" d="M32.87,41.12V56.79s9.49-1.73,12.53-6.27c3.39-5.08,0-15.67,0-15.67"/></g></g></svg>