<?xml version="1.0" encoding="utf-8"?>
<!-- Generator: Adobe Illustrator 26.0.1, SVG Export Plug-In . SVG Version: 6.00 Build 0)  -->
<svg version="1.1" id="Layer_1" xmlns="http://www.w3.org/2000/svg" xmlns:xlink="http://www.w3.org/1999/xlink" x="0px" y="0px"
	 viewBox="0 0 64.6 64.6" style="enable-background:new 0 0 64.6 64.6;" xml:space="preserve">
<style type="text/css">
	.st0{fill:#F47521;}
	.st1{fill:none;stroke:#231F20;stroke-width:1.7512;stroke-linecap:round;stroke-linejoin:round;}
</style>
<path class="st0" d="M10.9,42.5c-5.6,4.7-7.5,18.6-7.5,18.6s13.9-1.9,18.6-7.5c2.7-3.2,2.6-7.9-0.3-10.8
	C18.8,40,14.1,39.8,10.9,42.5z"/>
<path class="st1" d="M32.2,40.6L24,32.3c1.5-3.8,3.3-7.4,5.5-10.8C36,11.1,47.4,4.8,59.7,4.9c0,7.5-2.1,20.6-16.5,30.2
	C39.7,37.3,36.1,39.1,32.2,40.6z"/>
<path class="st1" d="M24,32.3H10.3c0,0,1.5-8.3,5.5-11c4.4-3,13.7,0,13.7,0"/>
<path class="st1" d="M32.2,40.6v13.7c0,0,8.3-1.5,11-5.5c3-4.4,0-13.7,0-13.7"/>
</svg>
