<svg xmlns="http://www.w3.org/2000/svg" viewBox="0 0 122.7 122.7">
    <defs>
        <style>
            .cls-1{fill:#f47521;}.cls-2{fill:none;stroke:#231f20;stroke-linecap:round;stroke-linejoin:round;stroke-width:11.42px;}
        </style>
    </defs>
    <g id="Layer_2" data-name="Layer 2">
        <g id="Layer_1-2" data-name="Layer 1">
            <path class="cls-1"
                  d="M15.51,83.93C3.88,93.7,0,122.7,0,122.7s29-3.88,38.78-15.51c5.5-6.51,5.42-16.52-.7-22.57A16.91,16.91,0,0,0,15.51,83.93Z"/>
            <path class="cls-2"
                  d="M59.89,80,42.76,62.82A125.4,125.4,0,0,1,54.18,40.26,73.55,73.55,0,0,1,117,5.71c0,15.53-4.45,42.83-34.26,62.82A127.89,127.89,0,0,1,59.89,80Z"/>
            <path class="cls-2" d="M42.76,62.82H14.21S17.35,45.51,25.63,40c9.25-6.16,28.55,0,28.55,0"/>
            <path class="cls-2" d="M59.89,80V108.5s17.3-3.14,22.84-11.42c6.17-9.25,0-28.55,0-28.55"/>
        </g>
    </g>
</svg>